<?xml version="1.0" standalone="no"?>
<!DOCTYPE svg PUBLIC "-//W3C//DTD SVG 20010904//EN"
 "http://www.w3.org/TR/2001/REC-SVG-20010904/DTD/svg10.dtd">
<svg version="1.0" xmlns="http://www.w3.org/2000/svg"
 width="259.000000pt" height="194.000000pt" viewBox="0 0 259.000000 194.000000"
 preserveAspectRatio="xMidYMid meet">

<g transform="translate(0.000000,194.000000) scale(0.100000,-0.100000)"
fill="#000000" stroke="none">
<path d="M16 1932 c5 -4 294 -221 642 -482 348 -260 631 -477 630 -481 -2 -4
-288 -222 -637 -483 -349 -262 -637 -478 -639 -481 -3 -3 576 -5 1286 -5
l1292 0 0 970 0 970 -1292 0 c-711 0 -1288 -4 -1282 -8z"/>
<path d="M493 1303 c8 -7 77 -6 85 2 3 3 -16 5 -43 5 -27 0 -45 -3 -42 -7z"/>
<path d="M340 1290 c-19 -6 -12 -8 30 -8 30 0 64 3 75 8 26 11 -70 11 -105 0z"/>
<path d="M574 1281 c4 -5 3 -11 -1 -14 -5 -2 -1 -2 7 1 8 2 38 4 65 4 37 -1
45 1 30 8 -27 12 -108 12 -101 1z"/>
<path d="M418 1253 c7 -3 16 -2 19 1 4 3 -2 6 -13 5 -11 0 -14 -3 -6 -6z"/>
<path d="M520 1250 l-25 -8 28 -1 c15 -1 27 4 27 9 0 6 -1 10 -2 9 -2 -1 -14
-5 -28 -9z"/>
<path d="M223 1223 c3 -10 11 -55 18 -100 9 -70 9 -95 -6 -172 -21 -108 -14
-146 32 -177 19 -13 57 -24 94 -28 35 -4 80 -13 100 -20 23 -8 43 -10 53 -4 9
5 57 15 107 23 75 11 97 18 118 39 23 23 26 34 24 89 -1 34 -6 75 -12 90 -15
38 -13 126 3 210 13 67 13 67 -8 60 -28 -9 -475 -8 -504 1 -20 7 -23 5 -19
-11z m259 -35 c112 -1 214 2 227 6 22 7 23 6 17 -23 -3 -17 -9 -45 -12 -62 -6
-29 -7 -30 -25 -13 -10 9 -20 27 -20 38 -2 19 -2 19 -6 -2 -3 -15 2 -29 14
-37 16 -13 14 -14 -27 -14 -40 0 -43 1 -27 13 9 7 16 24 16 37 -2 23 -2 23 -6
2 -2 -12 -11 -27 -19 -33 -26 -22 -15 -30 40 -30 l54 0 6 -55 c3 -30 9 -80 12
-110 5 -43 3 -61 -11 -82 -18 -27 -18 -27 -26 -5 -6 15 -16 22 -31 21 l-23 -2
23 -4 c12 -2 22 -9 22 -14 0 -5 -78 -9 -185 -9 -165 0 -214 7 -172 23 7 3 5 6
-5 6 -12 1 -18 -6 -18 -21 0 -21 0 -21 -21 -2 -20 18 -21 25 -14 99 11 113 11
162 2 229 -6 40 -5 56 2 52 6 -4 102 -8 213 -8z m168 -398 c-14 -4 -43 -9 -65
-9 -22 -1 -51 -7 -65 -14 -20 -11 -31 -11 -55 -1 -16 7 -59 17 -95 22 -54 8
-35 9 120 10 106 0 174 -3 160 -8z"/>
<path d="M270 1176 c0 -2 6 -15 13 -30 l14 -26 11 24 c9 20 8 25 -4 30 -18 7
-34 8 -34 2z"/>
<path d="M471 1153 c-6 -10 -11 -14 -11 -9 0 5 -6 3 -14 -3 -8 -7 -12 -20 -9
-31 4 -13 -6 -26 -36 -46 -23 -14 -41 -29 -41 -31 0 -3 11 2 25 11 29 19 39
20 29 4 -4 -7 -3 -8 5 -4 6 4 9 12 6 17 -4 5 1 12 9 15 10 4 16 18 16 36 0 17
4 27 10 23 6 -3 13 1 16 9 8 21 16 20 44 -4 21 -18 40 -26 40 -16 0 5 -65 46
-73 46 -3 0 -11 -8 -16 -17z"/>
<path d="M369 1148 c-1 -7 -2 -20 -3 -28 0 -9 -10 -14 -23 -13 -17 2 -23 -2
-23 -16 0 -14 5 -18 19 -14 11 3 22 11 25 19 3 8 12 14 20 14 7 0 16 11 18 25
4 19 1 25 -13 25 -11 0 -20 -6 -20 -12z"/>
<path d="M488 1113 c7 -3 16 -2 19 1 4 3 -2 6 -13 5 -11 0 -14 -3 -6 -6z"/>
<path d="M543 1076 c0 -7 7 -13 16 -12 9 1 15 -4 14 -11 -1 -6 5 -17 15 -25
16 -12 16 -11 2 6 -14 18 -13 19 5 13 l20 -7 -20 16 c-36 28 -52 34 -52 20z"/>
<path d="M634 1021 c20 -22 26 -25 26 -13 0 4 -10 13 -22 21 -23 14 -23 14 -4
-8z"/>
<path d="M336 1018 c-11 -36 -15 -108 -5 -108 6 0 8 4 5 8 -3 4 69 8 160 8 90
0 158 -3 151 -8 -8 -5 -6 -8 6 -8 10 0 17 5 15 12 -6 16 -57 30 -85 23 -16 -4
-23 -1 -23 9 0 10 -10 14 -30 14 -21 -1 -30 -6 -30 -17 0 -14 2 -14 10 -1 9
13 10 13 10 0 0 -10 3 -11 8 -4 5 9 11 8 20 -2 11 -12 3 -14 -52 -14 -56 0
-64 2 -59 16 5 13 7 13 14 2 7 -10 9 -9 9 5 0 9 -7 17 -15 17 -8 0 -15 -6 -15
-14 0 -10 -13 -14 -46 -13 l-46 1 4 43 c3 43 1 54 -6 31z"/>
<path d="M477 981 c-2 -10 -1 -25 4 -32 6 -10 9 -4 9 19 0 36 -5 42 -13 13z"/>
<path d="M438 870 c-2 -22 0 -40 4 -40 5 0 8 18 8 40 0 22 -2 40 -4 40 -2 0
-6 -18 -8 -40z"/>
<path d="M342 855 c0 -16 2 -22 5 -12 2 9 2 23 0 30 -3 6 -5 -1 -5 -18z"/>
<path d="M585 860 c-3 -6 1 -7 9 -4 18 7 21 14 7 14 -6 0 -13 -4 -16 -10z"/>
<path d="M150 895 c0 -8 4 -15 10 -15 5 0 7 7 4 15 -4 8 -8 15 -10 15 -2 0 -4
-7 -4 -15z"/>
</g>
</svg>
