<?xml version="1.0" standalone="no"?>
<!DOCTYPE svg PUBLIC "-//W3C//DTD SVG 20010904//EN"
 "http://www.w3.org/TR/2001/REC-SVG-20010904/DTD/svg10.dtd">
<svg version="1.0" xmlns="http://www.w3.org/2000/svg"
 width="275.000000pt" height="183.000000pt" viewBox="0 0 275.000000 183.000000"
 preserveAspectRatio="xMidYMid meet">

<g transform="translate(0.000000,183.000000) scale(0.100000,-0.100000)"
fill="#000000" stroke="none">
<path d="M0 915 l0 -915 340 0 340 0 0 915 0 915 -340 0 -340 0 0 -915z"/>
<path d="M2070 915 l0 -915 340 0 340 0 0 915 0 915 -340 0 -340 0 0 -915z"/>
<path d="M1325 1384 c-27 -52 -54 -94 -60 -94 -5 0 -30 11 -54 25 -23 14 -44
25 -46 25 -1 0 11 -68 28 -150 39 -194 33 -204 -60 -106 -67 73 -74 74 -89 19
-4 -17 -14 -23 -33 -23 -24 0 -93 14 -133 26 -15 4 -13 -6 11 -79 16 -46 26
-89 22 -94 -3 -6 -19 -17 -34 -25 l-29 -14 136 -110 c75 -60 136 -114 136
-120 0 -6 -7 -28 -16 -49 -8 -20 -13 -39 -11 -41 2 -2 56 6 121 17 64 11 124
18 133 15 14 -6 15 -23 11 -136 -6 -130 -6 -130 17 -130 23 0 23 0 17 130 -4
113 -3 130 11 136 9 3 69 -4 133 -15 65 -11 119 -19 121 -17 2 2 -3 21 -11 41
-9 21 -16 43 -16 49 0 6 61 60 136 120 l136 110 -29 14 c-15 8 -31 19 -34 25
-4 5 6 48 22 94 24 73 26 83 11 79 -40 -12 -109 -26 -133 -26 -19 0 -29 6 -33
23 -15 55 -22 54 -89 -19 -93 -98 -99 -88 -60 106 17 83 27 149 24 148 -3 -2
-27 -14 -53 -28 -26 -13 -49 -22 -51 -19 -2 2 -26 45 -53 95 l-49 92 -50 -94z"/>
</g>
</svg>
