<?xml version="1.0" standalone="no"?>
<!DOCTYPE svg PUBLIC "-//W3C//DTD SVG 20010904//EN"
 "http://www.w3.org/TR/2001/REC-SVG-20010904/DTD/svg10.dtd">
<svg version="1.0" xmlns="http://www.w3.org/2000/svg"
 width="2560.000000pt" height="1536.000000pt" viewBox="0 0 2560.000000 1536.000000"
 preserveAspectRatio="xMidYMid meet">

<g transform="translate(0.000000,1536.000000) scale(0.100000,-0.100000)"
fill="#000000" stroke="none">
<path d="M0 14863 l1 -498 5569 -3340 c3063 -1837 5569 -3342 5569 -3345 0 -3
-2506 -1508 -5569 -3345 l-5569 -3340 -1 -497 0 -498 827 0 828 0 5567 3340
c3061 1837 5572 3340 5578 3340 6 0 2517 -1503 5578 -3340 l5567 -3340 828 0
827 0 0 498 -1 497 -5569 3340 c-3063 1837 -5569 3342 -5569 3345 0 3 2506
1508 5569 3345 l5569 3340 1 498 0 497 -827 0 -828 0 -5567 -3340 c-3061
-1837 -5572 -3340 -5578 -3340 -6 0 -2517 1503 -5578 3340 l-5567 3340 -828 0
-827 0 0 -497z"/>
<path d="M12732 14976 c-80 -86 -117 -196 -94 -280 11 -37 10 -38 -11 -31 -97
29 -155 13 -200 -58 -33 -51 -35 -103 -6 -196 l20 -68 -20 -54 c-12 -30 -21
-55 -21 -56 0 -2 19 -2 43 -1 36 1 38 2 10 5 -38 5 -38 6 -18 64 15 40 14 48
-5 110 -35 118 -23 182 43 233 39 30 84 33 146 11 22 -8 41 -12 41 -10 0 2 -5
27 -11 55 -20 92 15 191 101 281 l50 54 50 -54 c86 -90 121 -189 101 -281 -6
-28 -11 -53 -11 -55 0 -2 19 2 41 10 62 22 107 19 146 -11 66 -51 78 -115 43
-233 -19 -62 -20 -70 -5 -110 20 -58 20 -59 -17 -64 -29 -3 -27 -4 10 -5 23
-1 42 -1 42 1 0 1 -9 26 -21 56 l-20 54 20 68 c29 93 27 145 -6 196 -45 71
-103 87 -200 58 -21 -7 -22 -6 -11 31 23 84 -14 194 -94 280 -33 35 -64 64
-68 64 -4 0 -35 -29 -68 -64z"/>
<path d="M10898 14723 c17 -33 282 -621 282 -626 0 -2 -8 -7 -17 -9 -10 -3
-26 -19 -36 -36 l-18 -31 31 -16 c19 -10 49 -15 73 -13 l42 3 28 -79 c21 -62
25 -81 15 -88 -8 -4 3 -7 27 -6 22 0 30 3 19 5 -17 3 -28 23 -50 88 -16 46
-25 87 -22 91 4 3 29 -13 55 -36 104 -91 214 -119 342 -86 75 19 104 38 192
123 l66 64 66 -45 c123 -87 214 -116 364 -116 172 0 251 27 375 127 l68 54 65
-54 c121 -100 203 -127 381 -127 135 0 229 29 342 104 l81 55 58 -56 c119
-115 203 -150 332 -141 78 6 143 36 214 98 26 23 50 40 53 37 4 -3 -8 -44 -26
-91 -25 -65 -37 -86 -54 -89 -11 -2 -3 -5 19 -5 23 -1 35 2 28 6 -10 6 -5 28
19 90 l31 83 42 -7 c30 -4 52 -1 74 10 l32 17 -18 31 c-10 17 -26 33 -35 36
-10 2 -18 7 -18 11 1 3 65 148 144 321 l143 315 -51 3 c-93 6 -181 -47 -245
-146 -16 -26 -33 -64 -36 -84 -4 -21 -9 -38 -12 -38 -2 0 -20 12 -39 26 -63
48 -148 19 -191 -66 -13 -24 -23 -58 -22 -75 1 -25 3 -23 10 13 12 61 38 101
79 123 49 26 81 24 128 -11 23 -16 44 -30 46 -30 2 0 6 21 10 46 11 82 104
191 189 223 26 10 117 16 117 8 0 -5 -278 -619 -282 -623 -4 -4 -108 22 -114
29 -2 2 3 23 11 47 8 23 15 50 14 59 0 9 -9 -12 -20 -46 -19 -60 -21 -62 -48
-57 -26 5 -91 -18 -91 -32 0 -3 10 -19 21 -36 25 -34 24 -35 -51 -71 -90 -42
-225 -19 -293 51 -38 39 -82 126 -72 142 3 6 12 10 18 10 26 0 88 52 107 90
23 46 26 125 6 173 -16 38 -76 94 -112 103 -14 4 -49 4 -79 2 -159 -13 -219
-205 -102 -326 l31 -32 -40 -41 c-57 -60 -148 -117 -227 -141 -55 -16 -86 -19
-160 -16 -122 7 -190 33 -268 105 l-60 56 28 12 c15 7 36 22 46 33 19 20 18
21 -14 50 -31 28 -33 33 -30 88 3 68 14 94 41 94 21 0 50 -46 50 -80 0 -50 63
-130 102 -130 7 0 -1 9 -19 20 -42 25 -64 60 -74 117 -11 54 -33 83 -65 83
-29 0 -44 -27 -44 -82 0 -87 -1 -88 -100 -88 l-87 0 -7 31 c-3 17 -6 47 -6 66
0 46 -16 73 -44 73 -32 0 -53 -27 -66 -85 -14 -62 -32 -90 -73 -115 -18 -11
-26 -20 -19 -20 39 0 102 80 102 130 0 59 57 104 78 63 12 -23 24 -143 14
-143 -4 0 -20 -12 -37 -27 l-29 -26 31 -27 c17 -15 37 -30 44 -33 10 -4 -3
-22 -42 -59 -74 -71 -144 -99 -265 -106 -146 -7 -256 34 -365 136 l-61 57 40
41 c118 125 40 324 -128 324 -67 0 -115 -23 -151 -73 -71 -98 -31 -250 77
-289 19 -6 34 -16 34 -21 0 -4 -12 -33 -26 -62 -42 -90 -109 -135 -225 -151
-45 -6 -132 19 -174 50 -18 13 -18 14 3 44 12 16 22 33 22 36 0 14 -65 37 -91
32 -27 -5 -29 -3 -48 57 -11 34 -20 55 -20 46 -1 -9 6 -36 14 -60 9 -23 12
-46 8 -50 -9 -8 -106 -29 -111 -24 -4 3 -282 617 -282 622 0 8 91 2 117 -8 85
-32 178 -141 189 -223 4 -25 8 -46 10 -46 2 0 23 14 47 31 34 25 49 30 79 26
79 -10 118 -65 133 -182 8 -65 17 -88 48 -123 22 -24 17 -37 -18 -45 -11 -2
-5 -3 14 -1 18 2 36 5 38 8 3 3 -10 24 -28 47 -26 34 -35 57 -46 121 -19 122
-59 174 -141 185 -35 5 -48 1 -76 -21 -19 -14 -37 -26 -39 -26 -3 0 -8 17 -12
38 -14 75 -93 173 -170 208 -65 31 -171 35 -157 7z m1072 -185 c99 -68 114
-189 33 -278 -55 -61 -126 -75 -201 -39 -128 62 -133 244 -8 320 45 28 133 26
176 -3z m1853 -3 c75 -52 103 -174 54 -246 -81 -121 -250 -113 -308 15 -57
126 25 256 161 256 43 0 64 -6 93 -25z m-888 -275 c18 -20 18 -21 -5 -45 -22
-24 -29 -25 -130 -25 -101 0 -108 1 -130 25 -23 24 -23 25 -5 45 16 18 31 20
135 20 104 0 119 -2 135 -20z m-918 -119 c109 -98 216 -141 354 -141 134 0
261 53 329 139 33 41 34 41 100 41 66 0 67 0 100 -41 75 -94 205 -144 353
-137 142 7 222 43 344 152 51 46 53 47 102 40 47 -6 50 -8 66 -49 39 -105 98
-153 213 -175 71 -14 109 -7 196 37 39 20 56 23 89 17 l42 -7 -50 -45 c-77
-69 -123 -87 -230 -87 -78 0 -97 4 -147 28 -32 16 -90 60 -132 100 l-76 72
-52 -38 c-124 -91 -231 -127 -374 -127 -172 0 -271 35 -382 135 l-62 57 -62
-56 c-113 -101 -211 -136 -382 -136 -143 0 -249 36 -374 127 l-54 38 -74 -71
c-42 -42 -98 -84 -131 -101 -51 -24 -69 -28 -148 -28 -78 0 -97 4 -145 28 -47
23 -130 88 -130 101 0 2 17 7 38 11 30 5 51 0 107 -27 54 -25 83 -33 125 -32
124 1 216 60 260 167 21 52 26 56 59 60 20 2 42 4 49 5 8 1 43 -25 79 -57z
m-613 -26 c17 -13 18 -18 6 -40 -14 -26 -25 -30 -154 -61 -60 -14 -81 -15
-101 -6 -30 14 -31 22 -7 51 11 15 47 30 107 46 107 28 124 29 149 10z m2936
-10 c65 -16 101 -31 113 -46 23 -29 22 -37 -8 -51 -20 -9 -41 -8 -101 6 -129
31 -140 35 -154 61 -12 22 -11 27 6 40 25 19 33 19 144 -10z"/>
<path d="M14101 14294 c-1 -19 -15 -49 -37 -78 -20 -26 -34 -50 -31 -52 2 -3
20 -6 38 -8 19 -2 25 -1 14 1 -36 8 -39 21 -11 53 29 35 40 69 33 97 -3 11 -5
5 -6 -13z"/>
<path d="M11281 14273 c0 -11 3 -13 6 -5 8 21 41 13 60 -15 37 -55 91 -103
114 -103 19 0 15 4 -18 19 -25 12 -48 32 -58 51 -23 45 -52 70 -80 70 -17 0
-25 -5 -24 -17z"/>
<path d="M14251 14271 c-11 -11 -27 -34 -36 -51 -10 -19 -33 -39 -58 -51 -33
-15 -37 -19 -18 -19 23 0 77 48 114 103 19 28 52 36 60 15 3 -8 6 -6 6 5 1 24
-43 23 -68 -2z"/>
<path d="M12568 13893 c128 -2 335 -2 460 0 125 1 20 2 -233 2 -253 0 -355 -1
-227 -2z"/>
<path d="M12123 13883 c31 -2 83 -2 115 0 31 2 5 3 -58 3 -63 0 -89 -1 -57 -3z"/>
<path d="M13368 13883 c34 -2 88 -2 120 0 31 2 3 3 -63 3 -66 0 -92 -1 -57 -3z"/>
<path d="M11903 13873 c26 -2 67 -2 90 0 23 2 2 3 -48 3 -49 0 -68 -1 -42 -3z"/>
<path d="M13613 13873 c26 -2 67 -2 90 0 23 2 2 3 -48 3 -49 0 -68 -1 -42 -3z"/>
<path d="M11748 13863 c18 -2 45 -2 60 0 15 2 0 4 -33 4 -33 0 -45 -2 -27 -4z"/>
<path d="M13798 13863 c17 -2 47 -2 65 0 17 2 3 4 -33 4 -36 0 -50 -2 -32 -4z"/>
<path d="M11618 13853 c18 -2 45 -2 60 0 15 2 0 4 -33 4 -33 0 -45 -2 -27 -4z"/>
<path d="M13928 13853 c18 -2 45 -2 60 0 15 2 0 4 -33 4 -33 0 -45 -2 -27 -4z"/>
<path d="M11493 13843 c15 -2 39 -2 55 0 15 2 2 4 -28 4 -30 0 -43 -2 -27 -4z"/>
<path d="M14053 13843 c15 -2 37 -2 50 0 12 2 0 4 -28 4 -27 0 -38 -2 -22 -4z"/>
<path d="M11393 13833 c15 -2 37 -2 50 0 12 2 0 4 -28 4 -27 0 -38 -2 -22 -4z"/>
<path d="M14158 13833 c12 -2 32 -2 45 0 12 2 2 4 -23 4 -25 0 -35 -2 -22 -4z"/>
<path d="M11242 13808 c-27 -27 5 -78 49 -78 14 0 16 -8 14 -37 -1 -21 -1 -30
2 -20 2 9 6 17 8 17 10 0 241 -83 248 -89 4 -4 -39 -46 -95 -94 -73 -61 -106
-83 -114 -76 -9 8 -11 5 -7 -10 3 -12 9 -19 13 -16 19 12 19 -29 0 -47 -25
-23 -25 -43 -1 -67 18 -18 18 -21 -5 -122 -112 -498 -147 -1019 -98 -1496 100
-985 542 -1784 1294 -2340 113 -84 236 -163 252 -163 6 0 54 29 107 64 736
491 1204 1193 1380 2072 115 576 100 1231 -43 1863 -23 101 -23 104 -5 122 24
24 24 44 -1 67 -19 18 -19 59 0 47 4 -3 10 4 13 16 4 15 2 18 -7 10 -8 -7 -39
14 -110 73 -54 46 -98 87 -98 91 0 5 47 25 104 46 152 54 146 52 151 32 3 -10
3 -1 2 20 -3 30 0 37 15 37 10 0 28 8 41 19 21 16 22 22 11 45 -6 15 -19 26
-29 25 -16 -1 -16 -2 -1 -6 25 -6 31 -34 12 -55 -14 -15 -28 -18 -78 -14 -34
2 -44 1 -23 -1 28 -3 37 -9 37 -23 0 -20 -17 -28 -183 -83 l-99 -33 112 -93
c73 -62 109 -99 106 -108 -4 -8 -6 -18 -6 -23 0 -5 -12 -11 -27 -13 -23 -3
-21 -4 9 -6 46 -1 70 -33 44 -59 -14 -14 -37 -13 -238 7 -305 29 -492 39 -913
47 -572 10 -1155 -11 -1593 -57 -99 -11 -115 -10 -128 3 -24 24 -2 58 39 59
23 1 26 3 10 6 -13 2 -23 8 -23 13 0 5 -2 15 -6 23 -3 9 33 46 106 108 l112
93 -99 33 c-166 55 -183 63 -183 83 0 14 9 20 33 23 17 3 6 3 -25 1 -42 -3
-61 1 -72 12 -23 22 -17 45 14 57 13 5 13 6 0 6 -9 1 -21 -4 -28 -11z m2303
-608 c10 -11 15 -28 12 -40 -4 -14 0 -20 12 -20 35 0 114 29 137 51 29 27 30
20 4 -31 -25 -49 -116 -96 -206 -105 -53 -6 -154 5 -202 22 -14 5 -15 3 -4 -8
17 -18 15 -54 -4 -70 -13 -10 -17 -10 -25 2 -5 8 -9 17 -9 22 0 15 -73 6 -113
-15 -64 -33 -163 -31 -244 6 -58 27 -65 28 -113 16 -96 -23 -102 -82 -13 -117
39 -14 76 -18 188 -18 132 1 157 4 420 59 399 84 408 85 535 85 131 1 177 -14
223 -68 31 -38 37 -103 12 -151 -18 -35 -82 -74 -168 -103 -56 -19 -85 -22
-283 -22 l-221 0 36 -26 c20 -15 46 -41 59 -58 l23 -31 157 6 c107 4 164 11
179 20 44 27 83 11 83 -33 0 -26 32 -43 79 -43 41 0 45 -11 14 -37 l-28 -22
25 -1 c14 0 36 -7 50 -15 l25 -13 -27 -11 c-41 -16 -44 -31 -5 -31 20 0 41 -7
51 -19 16 -18 15 -19 -16 -25 l-33 -7 27 -16 c14 -9 31 -27 37 -40 10 -21 9
-22 -19 -16 -28 5 -30 3 -30 -24 0 -16 9 -46 20 -68 29 -57 25 -100 -5 -59
-14 20 -55 10 -55 -12 0 -8 -5 -12 -11 -9 -6 4 -21 -3 -35 -16 -13 -12 -25
-21 -26 -18 -2 2 -8 13 -14 24 -7 12 -21 20 -35 19 -13 -1 -27 4 -31 11 -4 7
-18 10 -32 8 -20 -4 -25 0 -28 18 -2 14 -12 25 -25 29 -32 7 -16 26 33 39 22
6 49 20 60 32 19 21 19 21 -21 52 -22 17 -62 54 -90 83 l-50 52 -75 -20 c-60
-15 -100 -18 -200 -16 -146 4 -163 11 -256 100 l-62 59 -21 -27 c-11 -15 -21
-33 -21 -40 0 -28 24 -63 51 -74 15 -7 30 -19 34 -28 8 -21 -28 -52 -59 -52
-16 0 -27 -12 -41 -42 -24 -50 -40 -58 -49 -23 -8 31 -22 32 -32 3 -13 -45
-64 -80 -64 -44 0 7 -6 19 -14 25 -11 9 -15 6 -21 -16 -12 -50 -55 -83 -55
-44 0 11 -5 23 -10 26 -17 10 -79 -43 -86 -73 -12 -50 -38 -68 -47 -32 -4 15
-14 20 -36 20 -21 0 -31 5 -31 15 0 10 -11 15 -35 15 -32 0 -35 2 -29 24 4 18
1 27 -15 35 -18 10 -19 14 -9 31 11 17 9 22 -10 36 -19 13 -20 17 -8 29 8 8
12 24 9 35 -7 27 20 27 72 0 22 -11 51 -20 66 -20 23 0 111 36 228 93 36 18
36 32 -1 66 l-32 30 23 25 c24 25 24 26 6 46 -13 14 -14 20 -5 20 7 0 11 2 9
4 -3 3 -21 1 -42 -3 -41 -10 -42 -9 -27 20 6 10 8 19 5 19 -15 0 -115 -57
-221 -127 -149 -96 -205 -119 -330 -134 -91 -11 -101 -14 -124 -41 -18 -21
-37 -31 -67 -35 -36 -5 -43 -9 -48 -34 -4 -16 -21 -41 -38 -55 l-32 -27 -3 31
c-4 40 -12 40 -40 2 -12 -16 -36 -37 -52 -45 l-30 -16 0 33 -1 33 -27 -31
c-15 -18 -37 -37 -49 -43 -21 -11 -23 -10 -23 19 0 36 -12 39 -29 6 -7 -13
-31 -33 -53 -46 l-39 -22 6 36 7 36 -39 0 c-32 0 -45 -6 -70 -35 -37 -41 -80
-49 -79 -13 1 13 -8 26 -21 33 -16 8 -19 15 -12 28 8 14 5 17 -19 17 -35 0
-62 24 -37 34 23 8 18 45 -7 55 l-22 8 21 12 c12 6 29 11 37 11 9 0 16 4 16 9
0 5 10 11 21 14 17 5 20 11 17 31 -7 37 11 32 53 -14 49 -54 87 -54 200 -1 46
22 109 46 139 54 46 13 50 15 23 16 -22 1 -39 10 -56 31 -22 26 -33 30 -74 30
-29 0 -58 7 -72 16 l-23 17 33 15 34 15 -44 9 c-45 10 -91 34 -91 48 0 4 12
11 27 15 21 5 24 8 12 16 -7 5 -25 9 -39 9 -14 0 -36 7 -49 16 l-23 17 33 14
34 15 -47 12 c-25 7 -59 21 -75 31 l-28 19 35 9 c19 5 36 10 38 12 2 2 -4 17
-12 34 -13 24 -25 32 -56 37 -48 8 -67 26 -45 44 20 17 19 40 -2 56 -16 12
-15 14 13 19 27 6 30 10 26 38 -2 22 -1 28 6 19 16 -23 47 -10 50 21 4 33 34
37 56 6 9 -13 21 -19 30 -16 10 4 16 1 16 -8 0 -8 2 -15 4 -15 2 0 11 -3 19
-6 8 -3 22 2 31 11 15 15 16 15 16 -6 0 -12 -7 -30 -16 -40 -8 -9 -16 -25 -16
-35 -4 -47 15 -74 99 -145 49 -40 102 -88 119 -107 l31 -33 6 30 c4 16 20 45
37 64 34 39 36 47 15 47 -8 0 -19 9 -25 19 -8 16 -6 21 10 26 27 9 80 75 80
100 0 11 -7 29 -15 39 -19 26 -19 66 1 94 19 28 39 28 60 -1 l17 -22 28 27
c30 31 59 37 59 12 0 -12 7 -10 31 10 17 14 41 26 54 26 30 0 65 -36 65 -67 0
-25 10 -29 28 -11 9 9 15 3 27 -25 8 -20 15 -43 15 -52 0 -12 4 -14 19 -5 11
5 29 10 40 10 17 0 21 -6 21 -34 0 -51 -8 -65 -51 -87 -37 -18 -39 -22 -39
-65 0 -25 7 -58 15 -74 15 -28 19 -30 78 -30 35 0 162 13 282 29 334 45 384
47 565 21 174 -25 425 -30 545 -10 158 25 235 124 141 181 -80 49 -176 -10
-119 -73 17 -19 16 -19 -12 -13 -32 8 -65 38 -65 61 0 8 -4 14 -9 14 -14 0
-24 -38 -17 -66 12 -48 -49 -19 -71 34 l-15 36 -14 -24 c-7 -14 -11 -37 -8
-52 3 -16 2 -28 -3 -28 -21 0 -52 33 -63 65 -6 19 -15 35 -20 35 -4 0 -127
-23 -272 -52 -251 -49 -271 -51 -433 -52 -155 -1 -175 1 -227 22 -93 38 -120
91 -79 159 29 46 124 88 271 117 177 35 260 41 403 26 68 -7 135 -10 149 -7
34 9 61 36 54 53 -8 20 8 17 29 -6z m-71 -1189 c11 -13 15 -27 11 -40 -4 -14
-2 -21 7 -21 31 0 96 24 126 46 36 28 39 26 17 -15 -39 -77 -139 -117 -269
-108 -45 3 -91 9 -102 12 -19 6 -21 3 -17 -20 4 -17 -1 -33 -13 -46 l-19 -21
-5 24 c-8 32 -46 34 -112 6 -74 -32 -164 -30 -238 5 -49 23 -60 25 -101 16
-82 -18 -101 -66 -41 -102 42 -24 164 -40 247 -32 83 8 375 62 565 106 96 21
173 32 267 36 129 6 134 5 187 -21 117 -57 117 -184 -1 -248 -95 -52 -158 -62
-370 -61 l-192 1 57 -53 57 -54 145 6 c97 3 152 10 167 19 42 27 70 17 77 -28
4 -27 18 -38 50 -38 18 0 40 -6 50 -13 16 -12 16 -14 -9 -25 -32 -15 -24 -32
14 -32 15 0 32 -5 39 -12 9 -9 5 -15 -21 -27 l-32 -15 35 -4 c35 -4 60 -17 60
-33 0 -5 -8 -9 -18 -9 -32 0 -32 -11 -1 -37 36 -31 38 -52 4 -45 -23 4 -25 1
-25 -30 0 -20 9 -46 20 -61 21 -27 26 -52 11 -61 -5 -3 -11 1 -15 9 -8 22 -47
19 -53 -5 -3 -11 -9 -17 -14 -14 -5 3 -21 -4 -37 -16 l-27 -22 -5 24 c-5 17
-13 23 -35 23 -16 1 -30 6 -32 11 -2 6 -14 9 -28 7 -18 -4 -24 0 -27 18 -2 15
-12 25 -27 29 -19 4 -21 7 -10 16 8 6 30 17 50 23 20 6 44 20 53 30 16 17 13
21 -39 61 -30 23 -68 58 -83 77 l-28 35 -75 -17 c-104 -24 -274 -22 -334 4
-24 10 -81 54 -127 97 -45 43 -73 68 -61 54 19 -22 20 -27 7 -44 -28 -39 -12
-96 33 -110 50 -16 24 -76 -33 -76 -17 0 -24 -6 -24 -19 0 -10 -10 -31 -21
-46 l-22 -27 -14 34 -14 33 -13 -30 c-7 -16 -22 -38 -33 -48 -19 -16 -20 -16
-31 8 -13 29 -32 33 -32 7 0 -21 -27 -62 -41 -62 -5 0 -9 6 -9 14 0 7 -6 19
-13 25 -10 8 -21 3 -45 -22 -17 -17 -35 -44 -41 -59 -12 -31 -35 -37 -45 -12
-4 11 -14 15 -31 12 -19 -4 -25 -1 -25 13 0 15 -8 19 -34 19 -30 0 -33 2 -28
26 3 19 0 26 -16 31 -18 4 -19 8 -9 24 10 17 8 23 -12 38 -21 16 -22 19 -6 25
12 4 15 13 11 31 -8 32 14 33 69 5 51 -26 83 -25 136 4 24 14 70 34 102 46 32
12 61 29 64 37 3 8 -6 26 -21 42 -31 32 -32 40 -9 56 15 11 15 17 5 40 -10 23
-18 26 -42 23 -34 -5 -36 -2 -13 24 15 17 15 18 -15 7 -18 -6 -67 -32 -110
-59 -42 -26 -115 -70 -161 -99 -99 -60 -150 -77 -259 -86 -73 -7 -82 -10 -101
-36 -15 -20 -34 -31 -61 -35 -31 -5 -41 -12 -48 -34 -10 -27 -49 -70 -64 -70
-4 0 -8 11 -8 25 0 30 -15 33 -30 6 -9 -17 -69 -61 -83 -61 -4 0 -4 7 -1 15 4
8 3 23 -1 33 -6 15 -9 13 -21 -10 -8 -15 -28 -35 -44 -43 l-30 -16 0 31 c0 34
-15 40 -25 9 -6 -18 -59 -59 -77 -59 -5 0 -8 14 -8 30 0 27 -3 30 -30 30 -20
0 -40 -11 -64 -35 -34 -34 -83 -49 -73 -22 6 18 -11 47 -29 47 -10 0 -14 6
-10 15 3 8 1 15 -4 15 -5 0 -21 5 -37 11 -25 9 -26 12 -10 20 24 14 22 50 -3
56 -29 8 -24 23 10 30 17 3 30 9 30 14 0 5 10 9 21 9 18 0 21 5 17 30 -6 41
11 38 55 -10 46 -52 82 -53 180 -6 40 19 90 39 112 46 l40 12 -35 37 c-31 33
-40 37 -73 33 -25 -3 -46 2 -64 13 l-26 18 29 15 29 16 -38 8 c-21 4 -52 15
-69 24 l-32 16 35 16 34 15 -40 7 c-22 3 -50 13 -62 20 l-23 15 33 17 32 17
-44 7 c-24 4 -55 17 -69 29 l-25 22 31 6 c19 4 32 13 32 22 0 23 -37 55 -63
55 -13 0 -32 7 -43 15 -18 14 -18 16 -1 26 21 13 22 27 0 51 -15 17 -14 18 14
24 26 5 29 9 25 32 -5 24 -3 26 11 13 24 -19 51 3 42 36 -8 32 19 31 50 -2 17
-19 25 -23 31 -14 5 9 10 6 15 -9 10 -26 44 -29 58 -4 10 16 10 16 11 -2 0
-10 -9 -34 -21 -52 -29 -48 -14 -90 54 -145 29 -24 77 -67 108 -97 55 -53 57
-54 64 -31 4 13 20 41 36 61 29 36 29 37 9 48 -26 14 -26 37 0 45 23 7 70 72
70 96 0 9 -7 22 -15 29 -21 17 -18 70 4 99 l19 24 27 -27 c23 -23 29 -25 38
-13 7 8 24 22 40 32 27 17 27 17 27 -6 l0 -22 23 21 c12 11 34 25 48 31 22 8
30 6 47 -12 11 -12 24 -35 28 -50 5 -20 10 -25 17 -18 6 6 14 11 17 11 10 0
30 -48 30 -70 0 -17 3 -18 24 -8 36 16 56 4 56 -32 0 -33 -38 -80 -63 -80 -30
0 -36 -69 -12 -127 l15 -36 83 6 c45 3 165 17 267 31 294 39 343 41 525 16
132 -18 191 -21 340 -17 201 5 263 18 314 66 39 36 39 64 2 102 -34 33 -83 39
-119 13 -23 -16 -29 -48 -12 -59 18 -11 10 -26 -12 -23 -12 2 -33 18 -45 37
-18 27 -24 30 -29 17 -3 -9 -4 -30 -2 -46 3 -17 3 -30 2 -30 -23 0 -57 27 -73
57 l-19 38 -11 -29 c-7 -16 -9 -37 -6 -47 13 -41 -42 -8 -61 37 -8 19 -19 34
-25 34 -6 0 -115 -20 -243 -44 -297 -58 -421 -70 -529 -56 -140 20 -207 62
-207 131 0 36 77 104 140 123 183 55 335 69 591 56 76 -4 89 -2 108 14 12 11
19 26 17 33 -8 19 8 16 28 -6z m-234 -1178 c0 -23 3 -25 32 -19 18 3 42 16 55
28 27 26 31 9 6 -33 -24 -41 -77 -64 -148 -64 -33 0 -70 3 -81 8 -18 6 -21 4
-17 -16 3 -14 -2 -29 -11 -36 -13 -11 -16 -11 -16 2 0 24 -24 26 -70 6 -56
-25 -114 -24 -157 2 -57 35 -134 8 -118 -41 10 -33 69 -52 155 -51 55 0 133
15 298 56 183 45 239 55 309 55 83 0 86 -1 119 -34 29 -29 34 -41 34 -79 0
-60 -33 -99 -108 -128 -50 -20 -74 -22 -190 -21 l-132 1 37 -44 38 -44 100 6
c55 3 104 9 110 14 20 19 45 9 52 -21 4 -22 11 -30 27 -30 11 0 28 -5 36 -10
13 -9 12 -12 -4 -21 -17 -11 -16 -13 14 -26 30 -12 32 -15 16 -26 -16 -12 -16
-14 8 -25 28 -13 35 -32 11 -32 -19 0 -20 -16 -1 -23 7 -3 16 -15 19 -27 4
-17 2 -20 -14 -15 -16 5 -19 1 -19 -22 0 -16 7 -38 15 -49 22 -29 19 -45 -8
-39 -17 5 -30 -1 -48 -19 -29 -31 -35 -32 -42 -5 -4 15 -11 20 -21 16 -9 -4
-16 -1 -16 4 0 6 -9 9 -20 6 -15 -4 -20 0 -20 13 0 11 -8 23 -17 29 -16 8 -13
12 20 26 21 8 40 22 43 29 3 7 -12 30 -33 52 -21 21 -45 50 -54 63 -14 23 -15
23 -69 7 -62 -18 -156 -21 -197 -5 -15 6 -39 20 -52 32 l-24 22 12 -22 c6 -12
20 -25 32 -28 30 -10 22 -49 -12 -53 -18 -2 -31 -13 -42 -38 -19 -39 -32 -43
-41 -11 -6 21 -6 21 -25 -9 -26 -42 -38 -49 -46 -24 -7 22 -25 27 -25 7 0 -7
-6 -22 -14 -33 -14 -19 -15 -19 -29 0 -13 18 -15 18 -40 2 -14 -10 -30 -31
-36 -47 -11 -33 -22 -36 -41 -14 -7 9 -19 14 -27 11 -7 -3 -13 1 -13 9 0 10
-10 15 -29 15 -24 0 -28 3 -24 20 3 13 -1 22 -11 26 -12 5 -14 10 -6 19 7 9 6
16 -3 23 -20 17 -10 72 14 72 10 0 20 -4 24 -10 3 -5 22 -14 42 -19 32 -9 43
-7 78 13 22 13 61 31 88 41 53 20 61 43 25 68 -23 14 -23 15 -4 36 19 21 19
21 0 42 -16 17 -26 20 -63 14 -42 -6 -44 -6 -30 11 13 16 12 16 -6 7 -11 -6
-68 -47 -128 -92 -110 -82 -151 -101 -223 -101 -33 0 -45 -5 -58 -25 -9 -14
-27 -27 -41 -31 -13 -3 -27 -16 -31 -27 -7 -25 -33 -57 -46 -57 -4 0 -8 9 -8
21 0 18 -3 17 -26 -10 -30 -36 -44 -39 -44 -11 0 18 -4 16 -30 -12 -28 -31
-29 -32 -30 -10 0 29 -6 28 -37 -8 -30 -37 -43 -38 -43 -5 0 35 -29 33 -62 -5
-27 -31 -54 -41 -44 -15 3 8 -1 21 -9 29 -8 8 -15 19 -15 25 0 6 -6 11 -13 11
-7 0 -18 5 -25 12 -9 9 -8 14 4 23 15 10 15 13 -1 29 -20 19 -21 18 23 40 25
13 33 22 29 37 -7 26 0 24 31 -11 16 -16 39 -30 52 -31 14 -1 60 17 103 40 43
22 69 41 58 41 -11 0 -28 11 -37 25 -13 19 -25 25 -54 25 -21 0 -46 3 -55 7
-15 5 -15 8 6 24 20 16 21 19 6 19 -10 0 -34 7 -55 16 l-37 15 25 14 c14 8 19
14 12 15 -7 0 -29 7 -50 16 l-37 16 25 10 c24 10 24 10 -19 26 -48 18 -66 42
-32 42 12 0 21 5 21 11 0 23 -22 49 -41 49 -11 0 -29 5 -40 11 -20 10 -20 11
-2 24 15 12 16 17 6 34 -11 17 -10 21 6 26 12 4 17 12 14 24 -4 15 0 18 21 14
23 -5 26 -2 26 21 0 31 11 33 35 6 10 -11 22 -17 27 -14 5 3 15 -2 23 -12 11
-15 15 -16 29 -5 21 18 21 1 -1 -37 -23 -41 -6 -75 67 -134 57 -46 58 -47 76
-27 17 19 17 20 -1 33 -17 12 -16 15 18 50 41 40 44 51 23 90 -15 30 -11 59
11 78 13 10 18 9 32 -9 l17 -20 28 23 c30 26 46 30 46 12 0 -7 6 -6 18 4 30
26 51 29 72 8 11 -11 20 -30 20 -41 0 -17 3 -19 14 -10 12 10 17 8 25 -8 6
-11 11 -29 11 -40 0 -18 3 -19 26 -10 32 11 37 8 37 -26 0 -28 -28 -65 -50
-65 -25 0 -19 -89 8 -112 23 -19 53 -18 242 13 165 27 267 34 319 21 137 -35
355 -34 429 2 63 30 75 88 25 122 -18 11 -30 12 -51 4 -24 -9 -27 -14 -21 -40
7 -39 -19 -42 -36 -5 -10 22 -13 23 -20 10 -5 -8 -6 -25 -3 -36 6 -19 5 -20
-15 -9 -11 6 -26 23 -33 38 l-11 27 -4 -37 c-2 -21 -7 -38 -12 -38 -13 0 -40
42 -40 61 0 14 -13 13 -117 -12 -335 -79 -443 -80 -516 -8 -24 25 -28 35 -23
62 9 46 55 83 133 107 111 35 211 46 300 33 85 -12 122 -5 130 27 7 27 23 15
23 -17z"/>
<path d="M12076 13085 c-8 -31 19 -80 29 -53 9 24 2 71 -11 75 -7 2 -15 -8
-18 -22z"/>
<path d="M12168 13032 c7 -5 10 -16 6 -25 -7 -18 20 -25 31 -8 6 11 -21 41
-38 41 -8 0 -8 -3 1 -8z"/>
<path d="M12261 13014 c0 -11 3 -14 6 -6 3 7 2 16 -1 19 -3 4 -6 -2 -5 -13z"/>
<path d="M12300 13006 c0 -2 7 -7 16 -10 8 -3 12 -2 9 4 -6 10 -25 14 -25 6z"/>
<path d="M12229 12969 l-24 -20 28 17 c15 9 27 18 27 20 0 8 -8 4 -31 -17z"/>
<path d="M12348 12964 c2 -13 11 -24 18 -24 21 0 17 37 -4 42 -15 4 -18 1 -14
-18z"/>
<path d="M12460 12960 c-7 -17 -10 -33 -6 -37 10 -10 46 28 46 49 0 29 -26 21
-40 -12z"/>
<path d="M12311 12924 c0 -11 3 -14 6 -6 3 7 2 16 -1 19 -3 4 -6 -2 -5 -13z"/>
<path d="M12151 12914 c0 -11 3 -14 6 -6 3 7 2 16 -1 19 -3 4 -6 -2 -5 -13z"/>
<path d="M12210 12926 c0 -2 7 -7 16 -10 8 -3 12 -2 9 4 -6 10 -25 14 -25 6z"/>
<path d="M12147 12835 c-3 -31 -11 -63 -18 -71 -6 -8 -9 -17 -6 -20 3 -3 12 3
19 15 16 27 32 28 18 1 -7 -14 -7 -20 0 -20 5 0 10 -21 10 -47 l0 -46 -27 24
c-26 23 -26 23 2 -12 17 -20 35 -34 41 -32 6 2 20 24 32 48 12 25 26 45 32 45
5 0 10 7 10 16 0 8 5 12 11 9 6 -4 8 -13 5 -21 -3 -8 -2 -14 3 -14 5 0 12 15
15 33 8 45 55 115 80 120 20 4 20 4 0 6 -13 0 -28 -9 -38 -24 -20 -30 -61 -33
-78 -6 -9 15 -16 17 -31 10 -10 -6 -25 -8 -33 -5 -8 3 -14 -1 -14 -9 0 -7 -5
-17 -12 -21 -8 -5 -9 1 -5 22 3 17 2 36 -2 43 -5 7 -10 -10 -14 -44z m152 -42
c-7 -10 -15 -20 -16 -22 -2 -2 -3 5 -3 17 0 14 6 22 16 22 14 0 15 -3 3 -17z"/>
<path d="M12401 12714 c0 -11 3 -14 6 -6 3 7 2 16 -1 19 -3 4 -6 -2 -5 -13z"/>
<path d="M13018 12673 c6 -2 18 -2 25 0 6 3 1 5 -13 5 -14 0 -19 -2 -12 -5z"/>
<path d="M11951 12654 c0 -11 3 -14 6 -6 3 7 2 16 -1 19 -3 4 -6 -2 -5 -13z"/>
<path d="M12412 12645 c0 -16 2 -22 5 -12 2 9 2 23 0 30 -3 6 -5 -1 -5 -18z"/>
<path d="M13150 12626 c0 -2 8 -10 18 -17 15 -13 16 -12 3 4 -13 16 -21 21
-21 13z"/>
<path d="M12364 12528 l-19 -23 23 19 c12 11 22 21 22 23 0 8 -8 2 -26 -19z"/>
<path d="M12259 12513 l-24 -28 28 24 c15 14 27 26 27 28 0 8 -8 1 -31 -24z"/>
<path d="M13148 12533 c7 -3 16 -2 19 1 4 3 -2 6 -13 5 -11 0 -14 -3 -6 -6z"/>
<path d="M12065 12480 c-3 -5 -1 -10 4 -10 6 0 11 5 11 10 0 6 -2 10 -4 10 -3
0 -8 -4 -11 -10z"/>
<path d="M12094 12433 c16 -20 36 -23 36 -6 0 4 -3 3 -7 0 -3 -4 -16 1 -27 10
-21 18 -21 18 -2 -4z"/>
<path d="M12075 11901 c-3 -11 -1 -30 6 -42 10 -20 12 -21 21 -5 12 21 7 58
-9 63 -6 2 -14 -5 -18 -16z"/>
<path d="M12157 11851 c15 -7 21 -16 17 -26 -4 -10 0 -15 10 -15 9 0 16 5 16
10 0 6 10 10 23 11 22 1 9 6 -63 24 -24 5 -24 5 -3 -4z"/>
<path d="M12291 11827 c2 -1 13 -9 24 -17 19 -14 19 -14 6 3 -7 9 -18 17 -24
17 -6 0 -8 -1 -6 -3z"/>
<path d="M12219 11789 l-24 -20 28 17 c15 9 27 18 27 20 0 8 -8 4 -31 -17z"/>
<path d="M12444 11785 c-22 -33 -15 -49 14 -30 22 16 31 55 12 55 -5 0 -17
-11 -26 -25z"/>
<path d="M12337 11786 c-6 -14 0 -26 14 -26 3 0 9 9 12 20 6 23 -18 28 -26 6z"/>
<path d="M12114 11771 c7 -11 46 -35 46 -28 0 3 -12 12 -26 22 -15 9 -23 12
-20 6z"/>
<path d="M12215 11740 c10 -11 20 -20 23 -20 3 0 -3 9 -13 20 -10 11 -20 20
-23 20 -3 0 3 -9 13 -20z"/>
<path d="M12300 11742 c0 -6 -8 -13 -17 -15 -16 -4 -16 -5 -1 -6 18 -1 34 16
24 26 -3 4 -6 1 -6 -5z"/>
<path d="M12145 11658 c-4 -24 -11 -51 -17 -60 -11 -23 1 -23 17 -1 10 14 13
6 14 -47 l1 -63 -22 19 c-15 12 -13 8 5 -12 22 -25 34 -30 55 -26 18 4 21 7
10 10 -15 3 -15 6 4 38 11 19 24 34 29 34 5 0 9 7 9 16 0 24 20 6 21 -19 0
-12 6 -1 13 25 7 25 20 58 30 72 16 26 16 26 -2 15 -11 -7 -24 -24 -30 -38 -9
-25 -10 -25 -11 -4 -2 35 -31 63 -58 57 -15 -4 -31 0 -42 10 -18 17 -19 15
-26 -26z m28 -3 c-7 -21 -13 -19 -13 6 0 11 4 18 10 14 5 -3 7 -12 3 -20z"/>
<path d="M12330 11689 c0 -5 5 -7 10 -4 6 3 10 8 10 11 0 2 -4 4 -10 4 -5 0
-10 -5 -10 -11z"/>
<path d="M12391 11504 c0 -11 3 -14 6 -6 3 7 2 16 -1 19 -3 4 -6 -2 -5 -13z"/>
<path d="M12958 11463 c6 -2 18 -2 25 0 6 3 1 5 -13 5 -14 0 -19 -2 -12 -5z"/>
<path d="M12015 11420 c-3 -6 1 -7 9 -4 18 7 21 14 7 14 -6 0 -13 -4 -16 -10z"/>
<path d="M12240 10756 c0 -14 5 -28 10 -31 6 -4 10 7 10 24 0 17 -4 31 -10 31
-5 0 -10 -11 -10 -24z"/>
<path d="M12315 10711 c1 -9 5 -15 8 -13 4 1 17 6 29 11 21 8 20 8 -9 13 -24
3 -30 1 -28 -11z"/>
<path d="M12444 10675 c6 -13 14 -21 18 -19 13 8 9 18 -11 31 -17 11 -18 10
-7 -12z"/>
<path d="M12530 10669 c-7 -11 -9 -23 -6 -26 8 -9 36 17 36 33 0 21 -18 17
-30 -7z"/>
<path d="M12290 10621 c0 -8 7 -22 14 -30 10 -11 12 -21 6 -31 -8 -12 -10 -11
-10 5 -1 12 -7 4 -15 -20 -13 -37 -13 -66 1 -31 12 30 20 16 21 -36 1 -29 2
-56 2 -60 1 -3 10 -4 22 -1 11 3 16 9 11 12 -6 4 2 22 19 45 22 31 29 35 30
20 0 -11 7 -2 15 20 8 21 17 44 21 50 5 7 -3 0 -16 -14 -15 -16 -21 -19 -18
-8 7 21 -19 43 -52 43 -17 0 -29 8 -38 25 -7 14 -13 19 -13 11z"/>
<path d="M12642 13813 c92 -2 245 -2 340 0 95 1 20 3 -167 3 -187 0 -265 -2
-173 -3z"/>
<path d="M12183 13803 c37 -2 97 -2 135 0 37 2 6 3 -68 3 -74 0 -105 -1 -67
-3z"/>
<path d="M13283 13803 c37 -2 97 -2 135 0 37 2 6 3 -68 3 -74 0 -105 -1 -67
-3z"/>
<path d="M11943 13793 c26 -2 68 -2 95 0 26 2 4 3 -48 3 -52 0 -74 -1 -47 -3z"/>
<path d="M13563 13793 c26 -2 67 -2 90 0 23 2 2 3 -48 3 -49 0 -68 -1 -42 -3z"/>
<path d="M11777 13783 c18 -2 50 -2 70 0 21 2 7 4 -32 4 -38 0 -55 -2 -38 -4z"/>
<path d="M13747 13783 c18 -2 50 -2 70 0 21 2 7 4 -32 4 -38 0 -55 -2 -38 -4z"/>
<path d="M11648 13773 c18 -2 45 -2 60 0 15 2 0 4 -33 4 -33 0 -45 -2 -27 -4z"/>
<path d="M12497 13773 c-13 -12 -8 -278 5 -291 19 -19 581 -17 597 2 15 17 11
288 -4 293 -6 2 -9 -50 -7 -147 l3 -150 -291 0 -291 0 3 150 c3 141 1 160 -15
143z"/>
<path d="M13898 13773 c18 -2 45 -2 60 0 15 2 0 4 -33 4 -33 0 -45 -2 -27 -4z"/>
<path d="M11523 13763 c15 -2 39 -2 55 0 15 2 2 4 -28 4 -30 0 -43 -2 -27 -4z"/>
<path d="M14023 13763 c15 -2 37 -2 50 0 12 2 0 4 -28 4 -27 0 -38 -2 -22 -4z"/>
<path d="M11423 13753 c15 -2 37 -2 50 0 12 2 0 4 -28 4 -27 0 -38 -2 -22 -4z"/>
<path d="M12326 13744 c-34 -33 -9 -94 38 -94 28 0 56 29 56 57 0 44 -63 69
-94 37z m68 -10 c9 -8 16 -22 16 -29 0 -7 -7 -21 -16 -29 -30 -30 -74 -13 -74
29 0 42 44 59 74 29z"/>
<path d="M13197 13742 c-22 -24 -21 -55 1 -75 37 -34 92 -11 92 38 0 50 -60
73 -93 37z m71 -4 c17 -17 15 -53 -3 -68 -20 -17 -62 -5 -70 20 -14 44 41 80
73 48z"/>
<path d="M14123 13753 c15 -2 37 -2 50 0 12 2 0 4 -28 4 -27 0 -38 -2 -22 -4z"/>
<path d="M11978 13729 c-95 -10 -135 -29 -154 -75 -28 -67 20 -152 95 -169 32
-7 220 11 256 25 89 34 83 177 -10 216 -37 15 -68 16 -187 3z m180 -13 c85
-44 95 -141 19 -190 -26 -17 -216 -40 -258 -31 -16 4 -43 20 -59 37 -24 24
-30 38 -30 75 0 63 37 99 111 107 30 3 68 8 84 9 68 8 107 6 133 -7z"/>
<path d="M13433 13725 c-41 -17 -73 -69 -73 -116 0 -41 30 -86 65 -99 36 -14
224 -32 256 -25 75 17 123 102 95 169 -20 47 -58 64 -168 76 -120 12 -136 12
-175 -5z m237 -12 c64 -9 100 -47 100 -106 0 -37 -6 -51 -30 -75 -40 -40 -69
-45 -191 -32 -114 13 -128 18 -158 56 -38 48 -22 111 39 152 32 22 42 23 115
18 44 -4 100 -9 125 -13z"/>
<path d="M11642 13708 c-20 -20 -15 -76 9 -88 52 -29 107 26 75 75 -18 27 -63
34 -84 13z m78 -19 c23 -41 -35 -90 -68 -57 -13 13 -16 60 -5 71 15 16 63 6
73 -14z"/>
<path d="M13874 13695 c-32 -49 23 -104 75 -75 24 12 29 68 9 88 -21 21 -66
14 -84 -13z m84 -18 c7 -55 -44 -78 -73 -33 -24 36 -5 68 38 64 27 -2 33 -8
35 -31z"/>
<path d="M12660 13630 l0 -60 140 0 140 0 0 60 0 60 -140 0 -140 0 0 -60z
m270 0 l0 -50 -130 0 -130 0 0 50 0 50 130 0 130 0 0 -50z"/>
<path d="M12336 13584 c-19 -18 -21 -65 -4 -82 18 -18 63 -14 81 6 47 52 -28
126 -77 76z m68 -10 c19 -18 20 -28 6 -55 -20 -37 -80 -18 -80 26 0 42 44 59
74 29z"/>
<path d="M13187 13582 c-34 -38 -8 -92 44 -92 32 0 49 17 49 51 0 53 -59 79
-93 41z m71 -4 c7 -7 12 -21 12 -33 0 -44 -60 -63 -80 -26 -14 27 -13 37 6 55
18 19 45 21 62 4z"/>
<path d="M11652 13548 c-7 -7 -12 -27 -12 -45 0 -57 71 -73 99 -22 13 24 13
29 -2 53 -19 28 -63 36 -85 14z m72 -14 c20 -19 20 -24 0 -52 -26 -37 -74 -23
-74 23 0 42 44 59 74 29z"/>
<path d="M13863 13534 c-15 -24 -15 -29 -2 -53 28 -51 99 -35 99 22 0 40 -15
57 -52 57 -19 0 -33 -8 -45 -26z m75 4 c7 -7 12 -21 12 -33 0 -46 -48 -60 -74
-23 -20 28 -20 33 0 52 18 19 45 21 62 4z"/>
<path d="M12578 13433 c128 -2 335 -2 460 0 125 1 20 2 -233 2 -253 0 -355 -1
-227 -2z"/>
<path d="M12113 13423 c37 -2 96 -2 130 0 34 2 4 3 -68 3 -71 0 -99 -1 -62 -3z"/>
<path d="M13378 13423 c34 -2 90 -2 125 0 34 2 6 3 -63 3 -69 0 -97 -1 -62 -3z"/>
<path d="M11908 13413 c23 -2 61 -2 85 0 23 2 4 4 -43 4 -47 0 -66 -2 -42 -4z"/>
<path d="M13618 13413 c23 -2 61 -2 85 0 23 2 4 4 -43 4 -47 0 -66 -2 -42 -4z"/>
<path d="M11768 13403 c17 -2 47 -2 65 0 17 2 3 4 -33 4 -36 0 -50 -2 -32 -4z"/>
<path d="M13778 13403 c18 -2 45 -2 60 0 15 2 0 4 -33 4 -33 0 -45 -2 -27 -4z"/>
<path d="M11530 13387 c-52 -6 -86 -12 -75 -14 11 -2 79 3 150 11 72 7 105 14
75 13 -30 0 -98 -5 -150 -10z"/>
<path d="M13893 13393 c15 -2 39 -2 55 0 15 2 2 4 -28 4 -30 0 -43 -2 -27 -4z"/>
<path d="M14003 13383 c15 -2 37 -2 50 0 12 2 0 4 -28 4 -27 0 -38 -2 -22 -4z"/>
<path d="M14098 13373 c12 -2 30 -2 40 0 9 3 -1 5 -23 4 -22 0 -30 -2 -17 -4z"/>
</g>
</svg>
