<svg xmlns="http://www.w3.org/2000/svg" width="29.198" height="29.198" viewBox="0 0 29.198 29.198">
  <g id="about" transform="translate(-289 -768.802)">
    <path id="Path_348" data-name="Path 348" d="M14.6,0A14.6,14.6,0,1,0,29.2,14.6,14.6,14.6,0,0,0,14.6,0Zm.181,22.053a.432.432,0,0,0,.409,0,3.9,3.9,0,0,0,.683-.634c.292-.347.549-.724.838-1.115l.406.245a8.54,8.54,0,0,1-2.079,2.558,3.229,3.229,0,0,1-1.629.68,1.657,1.657,0,0,1-1.95-2.158c.292-1.2.663-2.383,1-3.574s.68-2.429,1.025-3.638a3.022,3.022,0,0,0,.061-.362.715.715,0,0,0-.645-.893,6.191,6.191,0,0,0-.637-.023,1.031,1.031,0,0,1,.032-.207l.041-.292,5.034-.806-.35,1.22h0l-.079.292q-1.095,3.825-2.2,7.676a2.429,2.429,0,0,0-.143.625.543.543,0,0,0,.181.406Zm1.209-13a1.823,1.823,0,1,1,1.822-1.834A1.837,1.837,0,0,1,15.989,9.051Z" transform="translate(289 768.802)" fill="#333"/>
  </g>
</svg>
