<svg
    xmlns="http://www.w3.org/2000/svg"
    viewBox="0 0 1370 1370"
    id="vector"
    >
    <path
        id="path"
        d="M 1375.63 731.24 C 1355.98 667.57 1248.1 638.79 1096.79 646.06 C 1086.24 531.32 1047.77 346.79 994.23 184.08 C 760.83 292.95 561.06 282.74 356.52 234.61 C 509.89 427.95 647.73 718.11 672.69 1056.55 C 767.67 1035.73 963.91 985.37 1094.26 901.58 C 1102.89 824.31 1105.74 743.51 1096.88 646.72 C 1212.64 644.14 1292.88 667.04 1307.79 715.41 C 1325.06 771.47 1250.78 848.58 1123.01 920.62 C 1122.98 920.65 1122.92 920.68 1122.89 920.72 C 1122.84 920.74 1122.72 920.81 1122.57 920.89 C 1122.19 921.09 1121.58 921.44 1120.68 921.93 C 1120.21 922.23 1119.75 922.49 1119.25 922.72 C 1109.81 928.04 1100.06 933.27 1090.04 938.5 C 1090.06 938.3 1090.09 938.09 1090.13 937.89 C 1012.56 977.15 809.73 1071.7 612.52 1095.56 C 612.43 1095.56 612.38 1095.58 612.28 1095.58 C 417.09 1127.88 268.19 1110.03 247.29 1042.29 C 234.32 1000.09 273.25 945.95 347.8 891.02 C 367.73 876.32 390.21 861.57 414.93 846.97 C 390.06 861.03 366.9 875.34 345.69 889.74 C 239.36 961.9 181.66 1036.34 199.39 1093.81 C 232.83 1202.51 523.33 1209.39 848.15 1109.28 C 1172.98 1009.16 1409.14 839.92 1375.63 731.24 Z M 688 510.44 L 663.38 523.39 L 650.83 499.53 C 633.6 507.62 614.9 511.7 602.46 511.18 L 594.54 477.84 C 608.13 478.07 625.72 475.55 642.04 466.97 C 656.35 459.44 663.24 448.76 657.95 438.71 C 652.93 429.17 641.73 427.36 619.84 430.86 C 588.21 435.96 563.28 433.03 550.46 408.68 C 538.83 386.58 545.29 361.05 569.39 341.65 L 556.84 317.79 L 581.46 304.84 L 593.08 326.94 C 610.31 318.84 623.46 316.41 633.87 316.07 L 641.51 348.29 C 633.52 348.96 618.93 349.25 600.84 358.77 C 584.52 367.37 582.94 377.17 586.65 384.2 C 591 392.49 602.56 393.13 628.15 389.94 C 663.58 384.77 682.9 392.25 694.79 414.85 C 706.55 437.2 700.76 464.61 674.52 484.83 L 688 510.44 Z M 911.41 830 L 922.85 887.29 L 877.18 896.39 L 866.44 842.41 C 831.11 848.26 794.06 845.23 771.38 835.81 L 775.97 780.54 C 800.22 788.99 833.77 794.49 867.69 787.75 C 902.78 780.75 923.27 758.76 917.96 732.01 C 913.01 706.95 890.29 694.71 846.08 687.84 C 783.43 678.36 740.25 659.17 729.97 607.37 C 720.41 559.49 746.55 516.12 800.79 494.91 L 789.92 440.35 L 835.59 431.23 L 845.89 483.04 C 881.15 477.19 906.75 480.77 926.33 486.14 L 921.51 540.34 C 906.93 536.88 879.91 528.97 842.04 536.49 C 803.07 544.22 793.12 567.05 796.9 585.94 C 801.46 608.8 823.99 617.64 875.09 627.13 C 942.12 638.1 975.92 662.64 985.76 712.2 C 995.2 759.47 970.66 807.79 911.41 830 Z"
        fill="#ffffff"/>
    <path
        id="path_1"
        d="M 632.42 1070.23 C 622.73 730.98 435.34 456.35 435.34 456.35 L 167.38 547.19 C 341.64 666.36 483.8 798.83 631.92 1071.6 C 631.38 1069.99 630.82 1068.39 630.26 1066.78 C 631.64 1069.02 632.42 1070.23 632.42 1070.23 Z M 434.69 630.29 C 417.3 641.25 396.87 644.22 378.66 637.36 C 370.07 634.36 361.71 628.97 354.19 620.57 L 342.66 627.84 L 334.71 615.25 L 344.47 609.09 C 343.92 608.2 343.24 607.14 342.57 606.07 C 341.44 604.3 340.5 602.42 339.39 600.63 L 329.46 606.89 L 321.51 594.3 L 333.39 586.81 C 329.66 575.78 328.77 564.93 330.3 554.79 C 333.26 537.06 343.19 521.38 359.86 510.85 C 370.68 504.03 381.64 500.58 389.81 499.4 L 397.6 522.74 C 391.76 523.7 383.03 525.99 375.23 530.9 C 366.72 536.28 360.71 544.02 359.46 554.23 C 358.77 558.64 359.4 563.95 361.06 569.34 L 405.23 541.48 L 413.17 554.07 L 366.35 583.6 C 367.29 585.49 368.52 587.44 369.65 589.22 C 370.32 590.29 370.76 590.99 371.43 592.05 L 418.43 562.4 L 426.37 574.99 L 381.85 603.07 C 386.45 607.61 390.98 610.44 395.53 611.79 C 405.24 614.6 415.25 612 424.12 606.4 C 432.28 601.25 438.94 593.35 441.43 589.04 L 458.11 606.1 C 454.21 613.28 446.05 623.13 434.69 630.29 Z"
        fill="#ffffff"/>
    <path
        id="path_2"
        d="M 235.02 656.67 L 105.78 766.52 C 202.64 808.67 281.83 850.83 345.69 889.74 C 346.4 890.16 347.1 890.59 347.8 891.02 C 512.41 991.65 574.27 1070.23 574.27 1070.23 C 499.96 863.45 235.02 656.67 235.02 656.67 Z M 289.45 833.83 L 274.64 826.05 C 275.7 814.24 270.93 797.98 258.5 791.47 C 255.93 790.12 253.64 789.15 250.88 788.18 L 241.48 806.11 L 222.64 796.23 L 230.32 781.6 C 225.26 780.12 219.67 777.88 214.73 775.3 C 191.68 763.21 185.32 738.42 198.18 713.9 C 203.45 703.83 209.58 697.49 213.89 694.62 L 232.53 710.22 C 228.69 712.64 224.73 717.09 221.18 723.85 C 214.38 736.84 220.68 745.28 229.46 749.89 C 234.21 752.38 238.89 754.14 244.04 755.44 L 257.19 730.37 L 276.03 740.25 L 264.14 762.93 C 268.81 765.14 272.82 767.72 276.27 771.39 C 279.97 775.43 283.02 780.77 284.56 787.18 L 284.93 787.36 L 310.54 738.51 L 333.22 750.4 L 289.45 833.83 Z"
        fill="#ffffff"/>
</svg>
